<?xml version="1.0" encoding="UTF-8" standalone="no"?>
<!-- Created with Inkscape (http://www.inkscape.org/) -->

<svg
   xmlns:dc="http://purl.org/dc/elements/1.1/"
   xmlns:cc="http://creativecommons.org/ns#"
   xmlns:rdf="http://www.w3.org/1999/02/22-rdf-syntax-ns#"
   xmlns:svg="http://www.w3.org/2000/svg"
   xmlns="http://www.w3.org/2000/svg"
   xmlns:sodipodi="http://sodipodi.sourceforge.net/DTD/sodipodi-0.dtd"
   xmlns:inkscape="http://www.inkscape.org/namespaces/inkscape"
   width="128"
   height="128"
   id="svg2"
   version="1.1"
   inkscape:version="0.48.5 r10040"
   sodipodi:docname="新規ドキュメント 1">
  <defs
     id="defs4" />
  <sodipodi:namedview
     id="base"
     pagecolor="#ffffff"
     bordercolor="#666666"
     borderopacity="1.0"
     inkscape:pageopacity="0.0"
     inkscape:pageshadow="2"
     inkscape:zoom="2.8890361"
     inkscape:cx="51.038242"
     inkscape:cy="64.773354"
     inkscape:document-units="px"
     inkscape:current-layer="layer1"
     showgrid="false"
     inkscape:window-width="1156"
     inkscape:window-height="760"
     inkscape:window-x="725"
     inkscape:window-y="52"
     inkscape:window-maximized="0" />
  <metadata
     id="metadata7">
    <rdf:RDF>
      <cc:Work
         rdf:about="">
        <dc:format>image/svg+xml</dc:format>
        <dc:type
           rdf:resource="http://purl.org/dc/dcmitype/StillImage" />
        <dc:title></dc:title>
      </cc:Work>
    </rdf:RDF>
  </metadata>
  <g
     inkscape:label="レイヤー 1"
     inkscape:groupmode="layer"
     id="layer1"
     transform="translate(0,-924.36218)">
    <rect
       style="fill:#e8ba00;fill-opacity:1;stroke:none"
       id="rect2985-1"
       width="105.96117"
       height="128.42828"
       x="-41.734821"
       y="927.76276"
       rx="4.7304091"
       ry="0.16381161"
       transform="matrix(-1,0,0.08159944,0.99666521,0,0)" />
    <rect
       style="fill:#ffd42a;stroke:none"
       id="rect2985"
       width="105.96117"
       height="128.42828"
       x="86.077339"
       y="927.76276"
       rx="4.7304091"
       ry="0.16381161"
       transform="matrix(1,0,-0.08159944,0.99666521,0,0)" />
    <text
       xml:space="preserve"
       style="font-size:59.16585922px;font-style:normal;font-variant:normal;font-weight:normal;font-stretch:normal;line-height:125%;letter-spacing:0px;word-spacing:0px;fill:#ffffff;fill-opacity:1;stroke:none;font-family:Segoe UI;-inkscape-font-specification:Segoe UI"
       x="151.25662"
       y="970.55206"
       id="text3775"
       sodipodi:linespacing="125%"
       transform="matrix(0.94419291,0,-0.13380973,1.0591056,0,0)"><tspan
         sodipodi:role="line"
         id="tspan3777"
         x="151.25662"
         y="970.55206"
         style="font-size:82.83220673px;font-style:normal;font-variant:normal;font-weight:normal;font-stretch:normal;fill:#ffffff;font-family:Arial;-inkscape-font-specification:Arial">31</tspan></text>
    <path
       sodipodi:type="arc"
       style="fill:#e8ba00;fill-opacity:1;stroke:none"
       id="path3783"
       sodipodi:cx="-552.85712"
       sodipodi:cy="105.21932"
       sodipodi:rx="24.285715"
       sodipodi:ry="24.285715"
       d="m -528.5714,105.21932 a 24.285715,24.285715 0 1 1 -48.57143,0 24.285715,24.285715 0 1 1 48.57143,0 z"
       transform="matrix(0.20377148,0,0,0.22857143,132.63529,912.04736)" />
    <path
       sodipodi:type="arc"
       style="fill:#e8ba00;fill-opacity:1;stroke:none"
       id="path3783-7"
       sodipodi:cx="-552.85712"
       sodipodi:cy="105.21932"
       sodipodi:rx="24.285715"
       sodipodi:ry="24.285715"
       d="m -528.5714,105.21932 a 24.285715,24.285715 0 1 1 -48.57143,0 24.285715,24.285715 0 1 1 48.57143,0 z"
       transform="matrix(0.20377148,0,0,0.22857143,149.81031,912.04736)" />
    <path
       sodipodi:type="arc"
       style="fill:#e8ba00;fill-opacity:1;stroke:none"
       id="path3783-4"
       sodipodi:cx="-552.85712"
       sodipodi:cy="105.21932"
       sodipodi:rx="24.285715"
       sodipodi:ry="24.285715"
       d="m -528.5714,105.21932 a 24.285715,24.285715 0 1 1 -48.57143,0 24.285715,24.285715 0 1 1 48.57143,0 z"
       transform="matrix(0.20377148,0,0,0.22857143,166.98534,912.04736)" />
    <path
       sodipodi:type="arc"
       style="fill:#e8ba00;fill-opacity:1;stroke:none"
       id="path3783-0"
       sodipodi:cx="-552.85712"
       sodipodi:cy="105.21932"
       sodipodi:rx="24.285715"
       sodipodi:ry="24.285715"
       d="m -528.5714,105.21932 a 24.285715,24.285715 0 1 1 -48.57143,0 24.285715,24.285715 0 1 1 48.57143,0 z"
       transform="matrix(0.20377148,0,0,0.22857143,184.16036,912.04736)" />
    <path
       sodipodi:type="arc"
       style="fill:#e8ba00;fill-opacity:1;stroke:none"
       id="path3783-9"
       sodipodi:cx="-552.85712"
       sodipodi:cy="105.21932"
       sodipodi:rx="24.285715"
       sodipodi:ry="24.285715"
       d="m -528.5714,105.21932 a 24.285715,24.285715 0 1 1 -48.57143,0 24.285715,24.285715 0 1 1 48.57143,0 z"
       transform="matrix(0.20377148,0,0,0.22857143,201.33539,912.04736)" />
    <path
       sodipodi:type="arc"
       style="fill:#e8ba00;fill-opacity:1;stroke:none"
       id="path3783-48"
       sodipodi:cx="-552.85712"
       sodipodi:cy="105.21932"
       sodipodi:rx="24.285715"
       sodipodi:ry="24.285715"
       d="m -528.5714,105.21932 a 24.285715,24.285715 0 1 1 -48.57143,0 24.285715,24.285715 0 1 1 48.57143,0 z"
       transform="matrix(0.20377148,0,0,0.22857143,218.51041,912.04736)" />
  </g>
</svg>
